<svg width="114" height="22" viewBox="0 0 114 22" fill="none" xmlns="http://www.w3.org/2000/svg">
<path d="M17.0812 0H0V2.6644H7.03966V20.8168H10.0768V2.6644H17.0812V0Z" fill="#FAFAE8"/>
<path d="M23.8265 7.90694C23.8265 6.65911 23.2144 6.02734 22.0058 6.02734H18.07V8.62896H21.0522V18.2153H17.0576V20.8169H27.8565V18.2153H23.8304V7.90694H23.8265Z" fill="#FAFAE8"/>
<path d="M22.1234 4.28501C23.4261 4.28501 24.4071 3.36287 24.4071 2.14251C24.4071 0.922141 23.4261 0 22.1234 0C20.8206 0 19.8945 0.922141 19.8945 2.14251C19.8945 3.36287 20.852 4.28501 22.1234 4.28501Z" fill="#FAFAE8"/>
<path d="M35.8458 8.33991C37.4429 8.33991 39.4402 8.93244 39.8758 11.7616L39.9033 11.9304H42.8698L42.8502 11.7106C42.5049 7.58258 39.0831 5.73438 35.8458 5.73438C31.3097 5.73438 28.2607 8.81864 28.2607 13.4058C28.2607 17.993 31.3097 21.1047 35.8458 21.1047C39.0831 21.1047 42.5088 19.2565 42.8502 15.1284L42.8698 14.9087H39.9033L39.8758 15.0774C39.4402 17.9027 37.4468 18.4992 35.8458 18.4992C32.428 18.4992 31.2116 15.8662 31.2116 13.4019C31.2116 10.9376 32.428 8.33207 35.8458 8.33207V8.33991Z" fill="#FAFAE8"/>
<path d="M58.7233 6.02334H54.9563L49.4548 11.9329H48.1795V0H45.1973V20.8168H48.1795V14.4168H49.3332L54.8935 20.8168H58.6448L51.9544 13.2082L58.7233 6.02334Z" fill="#FAFAE8"/>
<path d="M69.8438 15.5326C69.3415 17.5731 67.8857 18.6522 65.6372 18.6522C63.0709 18.6522 61.4621 16.957 61.3012 14.1042H72.7318V12.9781C72.7318 8.51253 69.9576 5.74219 65.496 5.74219C61.0344 5.74219 58.4014 8.61456 58.4014 13.241C58.4014 17.8674 61.2541 21.1164 65.6686 21.1164C71.017 21.1164 72.4258 17.2788 72.7868 15.6307L72.8378 15.3874H69.883L69.8438 15.5404V15.5326ZM61.3444 11.8754C61.6073 9.57986 63.1808 8.16722 65.496 8.16722C67.9602 8.16722 69.5534 9.54847 69.7927 11.8754H61.3444Z" fill="#FAFAE8"/>
<path d="M79.3589 8.62791H83.8755V6.02629H79.3589V1.94141H76.3806V6.02237H73.1943V8.62398H76.3806V18.587C76.3806 20.0664 77.1301 20.8159 78.6095 20.8159H84.4562V18.2103L79.3589 18.2378V8.62398V8.62791Z" fill="#FAFAE8"/>
<path d="M92.9994 5.73828C88.3808 5.73828 85.1553 8.89318 85.1553 13.4097C85.1553 17.9262 88.3808 21.1086 92.9994 21.1086C97.6179 21.1086 100.816 17.9419 100.816 13.4097C100.816 8.87748 97.6022 5.73828 92.9994 5.73828ZM92.9994 18.507C89.6169 18.507 88.1022 15.9446 88.1022 13.4097C88.1022 10.8748 89.6169 8.3399 92.9994 8.3399C96.3819 8.3399 97.8651 10.8866 97.8651 13.4097C97.8651 15.9328 96.3622 18.507 92.9994 18.507Z" fill="#FAFAE8"/>
<path d="M105.364 6.02344C103.884 6.02344 103.135 6.76507 103.135 8.22088V20.8169H106.113V8.62505H113.698V6.02344H105.36H105.364Z" fill="#FAFAE8"/>
</svg>
