<svg width="32" height="21" viewBox="0 0 32 21" fill="none" xmlns="http://www.w3.org/2000/svg">
<path d="M0 20.7087V16.0936C2.99527 15.894 5.36929 13.3978 5.36929 10.3544C5.36929 7.31092 2.99527 4.81108 0 4.61509V0H31.4466V4.61509C28.4513 4.81478 26.0773 7.31092 26.0773 10.3544C26.0773 13.3978 28.4513 15.8977 31.4466 16.0936V20.7087H0ZM8.57904 5.17718C9.48871 6.74513 9.96943 8.53496 9.96943 10.3544C9.96943 12.1738 9.48871 13.9636 8.57904 15.5316L8.24623 16.1084H23.2004L22.8676 15.5316C21.9579 13.9636 21.4772 12.1738 21.4772 10.3544C21.4772 8.53496 21.9579 6.74513 22.8676 5.17718L23.2004 4.6003H8.24623L8.57904 5.17718Z" fill="#FCFC65"/>
</svg>
