<svg width="32" height="32" viewBox="0 0 32 32" fill="none" xmlns="http://www.w3.org/2000/svg">
<path d="M10.2016 2.09947C8.71163 2.16947 7.69463 2.40747 6.80563 2.75647C5.88563 3.11547 5.10563 3.59647 4.32863 4.37547C3.55263 5.15447 3.07463 5.93547 2.71863 6.85647C2.37363 7.74747 2.14063 8.76547 2.07463 10.2565C2.00863 11.7465 1.99463 12.2265 2.00163 16.0275C2.00863 19.8285 2.02563 20.3055 2.09763 21.7995C2.16863 23.2885 2.40563 24.3055 2.75463 25.1955C3.11363 26.1155 3.59463 26.8955 4.37363 27.6725C5.15263 28.4485 5.93263 28.9255 6.85663 29.2825C7.74663 29.6265 8.76563 29.8615 10.2556 29.9265C11.7456 29.9915 12.2256 30.0065 16.0266 29.9995C19.8276 29.9925 20.3056 29.9755 21.7996 29.9045C23.2936 29.8335 24.3046 29.5955 25.1946 29.2475C26.1146 28.8875 26.8956 28.4075 27.6716 27.6275C28.4476 26.8475 28.9256 26.0665 29.2806 25.1445C29.6256 24.2545 29.8596 23.2355 29.9246 21.7465C29.9896 20.2525 30.0056 19.7755 29.9976 15.9735C29.9896 12.1715 29.9736 11.6955 29.9026 10.2025C29.8316 8.70947 29.5946 7.69547 29.2456 6.80547C28.8856 5.88547 28.4056 5.10547 27.6266 4.32847C26.8476 3.55147 26.0656 3.07447 25.1436 2.71947C24.2526 2.37447 23.2346 2.13947 21.7446 2.07547C20.2546 2.01147 19.7746 1.99447 15.9726 2.00147C12.1706 2.00847 11.6946 2.02547 10.2016 2.09747M10.3656 27.4065C9.00063 27.3475 8.25963 27.1205 7.76563 26.9305C7.11163 26.6785 6.64563 26.3735 6.15363 25.8865C5.66163 25.3995 5.35863 24.9315 5.10363 24.2785C4.91163 23.7845 4.68063 23.0445 4.61663 21.6795C4.54763 20.2045 4.53263 19.7615 4.52463 16.0235C4.51663 12.2855 4.53063 11.8435 4.59563 10.3675C4.65363 9.00347 4.88163 8.26147 5.07163 7.76747C5.32363 7.11247 5.62763 6.64747 6.11563 6.15547C6.60363 5.66347 7.07063 5.36047 7.72363 5.10547C8.21663 4.91247 8.95763 4.68347 10.3216 4.61847C11.7976 4.54847 12.2406 4.53447 15.9776 4.52647C19.7146 4.51847 20.1586 4.53247 21.6356 4.59747C22.9996 4.65647 23.7416 4.88247 24.2346 5.07347C24.8886 5.32547 25.3546 5.62847 25.8466 6.11747C26.3386 6.60647 26.6416 7.07147 26.8976 7.72647C27.0906 8.21847 27.3196 8.95847 27.3836 10.3235C27.4536 11.7995 27.4696 12.2425 27.4766 15.9795C27.4836 19.7165 27.4706 20.1605 27.4056 21.6355C27.3456 23.0005 27.1196 23.7415 26.9296 24.2365C26.6776 24.8905 26.3736 25.3565 25.8846 25.8485C25.3956 26.3405 24.9296 26.6435 24.2766 26.8985C23.7836 27.0905 23.0426 27.3205 21.6796 27.3855C20.2036 27.4545 19.7606 27.4695 16.0226 27.4775C12.2846 27.4855 11.8416 27.4705 10.3656 27.4065ZM21.7786 8.51847C21.7806 9.44647 22.5336 10.1975 23.4616 10.1955C24.3896 10.1935 25.1406 9.44047 25.1386 8.51247C25.1366 7.58447 24.3836 6.83347 23.4556 6.83547C22.5276 6.83747 21.7776 7.59047 21.7786 8.51847ZM8.81163 16.0145C8.81963 19.9845 12.0436 23.1965 16.0136 23.1885C19.9836 23.1805 23.1966 19.9565 23.1896 15.9865C23.1816 12.0165 19.9566 8.80347 15.9866 8.81147C12.0166 8.81947 8.80363 12.0445 8.81163 16.0145ZM11.3346 16.0095C11.3296 13.4325 13.4146 11.3385 15.9926 11.3335C18.5696 11.3285 20.6636 13.4135 20.6686 15.9915C20.6736 18.5685 18.5886 20.6625 16.0106 20.6675C13.4336 20.6725 11.3396 18.5885 11.3346 16.0115" fill="white"/>
</svg>
