<svg width="32" height="32" viewBox="0 0 32 32" fill="none" xmlns="http://www.w3.org/2000/svg">
<g clip-path="url(#clip0_8102_2062)">
<path d="M18.4203 14.009L27.8913 3H25.6473L17.4233 12.559L10.8553 3H3.28027L13.2123 17.455L3.28027 29H5.52427L14.2083 18.905L21.1443 29H28.7203L18.4203 14.009ZM15.3463 17.582L14.3403 16.143L6.33327 4.69H9.78027L16.2423 13.933L17.2483 15.372L25.6483 27.387H22.2013L15.3473 17.583L15.3463 17.582Z" fill="white"/>
<path d="M18.4203 14.009L27.8913 3H25.6473L17.4233 12.559L10.8553 3H3.28027L13.2123 17.455L3.28027 29H5.52427L14.2083 18.905L21.1443 29H28.7203L18.4203 14.009ZM15.3463 17.582L14.3403 16.143L6.33327 4.69H9.78027L16.2423 13.933L17.2483 15.372L25.6483 27.387H22.2013L15.3473 17.583L15.3463 17.582Z" fill="white"/>
</g>
<defs>
<clipPath id="clip0_8102_2062">
<rect width="32" height="32" fill="white"/>
</clipPath>
</defs>
</svg>
