    <svg style="display: none;">
        <symbol id="icon-search" xmlns="http://www.w3.org/2000/svg" viewBox="0 0 24 24" fill="none">
            <circle cx="11.5" cy="11.5" r="9.5" stroke="currentcolor" stroke-width="1.5" />
            <path d="M18.5 18.5L22 22" stroke="currentcolor" stroke-width="1.5" stroke-linecap="round" />
        </symbol>

        <symbol id="icon-login" xmlns="http://www.w3.org/2000/svg" viewBox="0 0 22 22" fill="none">
            <path
                d="M10.75 12C11.1642 12 11.5 12.3358 11.5 12.75V16.75C11.5 17.1642 11.1642 17.5 10.75 17.5C10.3358 17.5 10 17.1642 10 16.75V12.75C10 12.3358 10.3358 12 10.75 12Z"
                fill="white" />
            <path fill-rule="evenodd" clip-rule="evenodd"
                d="M4 8.05277V6.75C4 3.02208 7.02208 0 10.75 0C14.4779 0 17.5 3.02208 17.5 6.75V8.05277C17.7268 8.06872 17.9406 8.08948 18.1418 8.11652C19.0419 8.23754 19.7997 8.49643 20.4017 9.09835C21.0036 9.70027 21.2625 10.4581 21.3835 11.3582C21.5 12.2252 21.5 13.3275 21.5 14.6951V14.8049C21.5 16.1725 21.5 17.2748 21.3835 18.1418C21.2625 19.0419 21.0036 19.7997 20.4017 20.4016C19.7997 21.0036 19.0419 21.2625 18.1418 21.3835C17.2748 21.5 16.1725 21.5 14.8049 21.5H6.69513C5.32754 21.5 4.22522 21.5 3.35825 21.3835C2.45814 21.2625 1.70027 21.0036 1.09835 20.4016C0.496434 19.7997 0.237541 19.0419 0.116524 18.1418C-3.5964e-05 17.2748 -1.96761e-05 16.1725 5.3002e-07 14.8049V14.6951C-1.96761e-05 13.3275 -3.5964e-05 12.2252 0.116524 11.3582C0.237541 10.4581 0.496434 9.70027 1.09835 9.09835C1.70027 8.49643 2.45814 8.23754 3.35825 8.11652C3.55938 8.08948 3.77317 8.06872 4 8.05277ZM5.5 6.75C5.5 3.85051 7.85051 1.5 10.75 1.5C13.6495 1.5 16 3.85051 16 6.75V8.00344C15.6265 7.99999 15.2284 7.99999 14.8049 8H6.69513C6.27161 7.99999 5.87353 7.99999 5.5 8.00344V6.75ZM3.55812 9.60315C2.82435 9.7018 2.43577 9.88225 2.15901 10.159C1.88225 10.4358 1.7018 10.8243 1.60315 11.5581C1.50159 12.3135 1.5 13.3146 1.5 14.75C1.5 16.1854 1.50159 17.1865 1.60315 17.9419C1.7018 18.6757 1.88225 19.0642 2.15901 19.341C2.43577 19.6178 2.82435 19.7982 3.55812 19.8969C4.31347 19.9984 5.31459 20 6.75 20H14.75C16.1854 20 17.1865 19.9984 17.9419 19.8969C18.6757 19.7982 19.0642 19.6178 19.341 19.341C19.6178 19.0642 19.7982 18.6757 19.8969 17.9419C19.9984 17.1865 20 16.1854 20 14.75C20 13.3146 19.9984 12.3135 19.8969 11.5581C19.7982 10.8243 19.6178 10.4358 19.341 10.159C19.0642 9.88225 18.6757 9.7018 17.9419 9.60315C17.1865 9.50159 16.1854 9.5 14.75 9.5H6.75C5.31459 9.5 4.31347 9.50159 3.55812 9.60315Z"
                fill="white" />
        </symbol>

        <symbol id="icon-user" xmlns="http://www.w3.org/2000/svg" width="24" height="24" viewBox="0 0 24 24"
            fill="none">
            <circle cx="12" cy="6" r="4" fill="currentcolor" />
            <ellipse cx="12" cy="17" rx="7" ry="4" fill="currentcolor" />
        </symbol>

        <symbol id="icon-signup" xmlns="http://www.w3.org/2000/svg" viewBox="0 0 22 22" fill="none">
            <path
                d="M13.6944 5.30021e-07C12.3268 -1.96761e-05 11.2245 -3.5964e-05 10.3575 0.116524C9.45738 0.237541 8.6995 0.496434 8.09759 1.09835C7.57266 1.62328 7.30742 2.26836 7.16818 3.02635C7.03289 3.76291 7.00701 4.6643 7.00099 5.74583C6.99868 6.16003 7.33259 6.49768 7.7468 6.49999C8.16101 6.5023 8.49866 6.16838 8.50097 5.75418C8.50705 4.66068 8.53545 3.8856 8.6435 3.29735C8.74762 2.73054 8.91479 2.40246 9.15825 2.15901C9.43501 1.88225 9.82358 1.7018 10.5574 1.60315C11.3127 1.50159 12.3138 1.5 13.7492 1.5H14.7492C16.1847 1.5 17.1858 1.50159 17.9411 1.60315C18.6749 1.7018 19.0635 1.88225 19.3402 2.15901C19.617 2.43577 19.7974 2.82435 19.8961 3.55812C19.9976 4.31347 19.9992 5.31459 19.9992 6.75V14.75C19.9992 16.1854 19.9976 17.1865 19.8961 17.9419C19.7974 18.6757 19.617 19.0642 19.3402 19.341C19.0635 19.6178 18.6749 19.7982 17.9411 19.8969C17.1858 19.9984 16.1847 20 14.7492 20H13.7492C12.3138 20 11.3127 19.9984 10.5574 19.8969C9.82358 19.7982 9.43501 19.6178 9.15825 19.341C8.91479 19.0975 8.74762 18.7695 8.6435 18.2027C8.53545 17.6144 8.50705 16.8393 8.50097 15.7458C8.49866 15.3316 8.16101 14.9977 7.7468 15C7.33259 15.0023 6.99868 15.34 7.00099 15.7542C7.00701 16.8357 7.03289 17.7371 7.16818 18.4736C7.30742 19.2316 7.57266 19.8767 8.09759 20.4017C8.6995 21.0036 9.45738 21.2625 10.3575 21.3835C11.2245 21.5 12.3268 21.5 13.6944 21.5H14.8041C16.1717 21.5 17.274 21.5 18.141 21.3835C19.0411 21.2625 19.799 21.0036 20.4009 20.4017C21.0028 19.7997 21.2617 19.0419 21.3827 18.1418C21.4993 17.2748 21.4993 16.1725 21.4992 14.8049V6.69513C21.4993 5.32754 21.4993 4.22522 21.3827 3.35825C21.2617 2.45814 21.0028 1.70027 20.4009 1.09835C19.799 0.496434 19.0411 0.237541 18.141 0.116524C17.274 -3.5964e-05 16.1717 -1.96761e-05 14.8041 5.30021e-07H13.6944Z"
                fill="#FCFC65" />
            <path
                d="M0.75 9.99903C0.335786 9.99903 0 10.3348 0 10.749C0 11.1632 0.335786 11.499 0.75 11.499L12.7226 11.499L10.7619 13.1796C10.4474 13.4491 10.411 13.9226 10.6806 14.2371C10.9501 14.5516 11.4236 14.588 11.7381 14.3185L15.2381 11.3185C15.4043 11.176 15.5 10.968 15.5 10.749C15.5 10.5301 15.4043 10.3221 15.2381 10.1796L11.7381 7.17958C11.4236 6.91002 10.9501 6.94644 10.6806 7.26093C10.411 7.57543 10.4474 8.0489 10.7619 8.31847L12.7226 9.99902L0.75 9.99903Z"
                fill="#FCFC65" />
        </symbol>

        <symbol id="arrow-left" xmlns="http://www.w3.org/2000/svg" viewBox="0 0 24 24" fill="none">
            <path fill-rule="evenodd" clip-rule="evenodd"
                d="M11.879 6.46967C12.1719 6.17678 12.6468 6.17678 12.9397 6.46967L18.9397 12.4697C19.2326 12.7626 19.2326 13.2374 18.9397 13.5303L12.9397 19.5303C12.6468 19.8232 12.1719 19.8232 11.879 19.5303C11.5862 19.2374 11.5862 18.7626 11.879 18.4697L16.5987 13.75H5.59082C5.17661 13.75 4.84082 13.4142 4.84082 13C4.84082 12.5858 5.17661 12.25 5.59082 12.25H16.5987L11.879 7.53033C11.5862 7.23744 11.5862 6.76256 11.879 6.46967Z"
                fill="#010108" />
        </symbol>

        <symbol id="arrow-left1" viewBox="0 0 24 24" fill="none">
            <path d="M15 5L9 12L15 19" stroke="currentColor" stroke-width="1.5" stroke-linecap="round"
                stroke-linejoin="round" />
        </symbol>

        <symbol id="arrow-right" xmlns="http://www.w3.org/2000/svg" viewBox="0 0 24 24" fill="none">
            <path fill-rule="evenodd" clip-rule="evenodd"
                d="M8.51192 4.43057C8.82641 4.161 9.29989 4.19743 9.56946 4.51192L15.5695 11.5119C15.8102 11.7928 15.8102 12.2072 15.5695 12.4881L9.56946 19.4881C9.29989 19.8026 8.82641 19.839 8.51192 19.5695C8.19743 19.2999 8.161 18.8264 8.43057 18.5119L14.0122 12L8.43057 5.48811C8.161 5.17361 8.19743 4.70014 8.51192 4.43057Z"
                fill="white" />
        </symbol>

        <symbol id="arrow-left2" xmlns="http://www.w3.org/2000/svg" viewBox="0 0 24 24" fill="none">
            <path d="M9 5L15 12L9 19" stroke="white" stroke-width="1.5" stroke-linecap="round"
                stroke-linejoin="round" />
        </symbol>

        <symbol id="icon-star" xmlns="http://www.w3.org/2000/svg" viewBox="0 0 14 13" fill="none">
            <path
                d="M3.85579 12.8763C3.31465 13.1531 2.64698 12.9477 2.36452 12.4174C2.25152 12.2053 2.21339 11.9625 2.25609 11.7269L2.8522 8.37875L0.342487 6.02201C-0.0992664 5.6092 -0.115866 4.92363 0.305412 4.49076C0.477345 4.31409 0.705145 4.19953 0.951863 4.16564L4.43643 3.67754L6.0096 0.602366C6.28067 0.0664154 6.94379 -0.152738 7.49073 0.11288C7.7074 0.218102 7.88288 0.390051 7.99026 0.602366L9.56343 3.67754L13.048 4.16564C13.6525 4.24867 14.0739 4.79618 13.9892 5.38855C13.9546 5.63031 13.8377 5.85353 13.6574 6.02201L11.1477 8.37875L11.7438 11.7276C11.8505 12.3165 11.4498 12.8787 10.8488 12.9833C10.6083 13.0252 10.3605 12.9878 10.1441 12.8771L6.99993 11.285L3.85579 12.8763Z"
                fill="#FCFC65" />
        </symbol>

        <symbol id="icon-clock" xmlns="http://www.w3.org/2000/svg" viewBox="0 0 14 14" fill="none">
            <g clip-path="url(#clip0_8063_1166)">
                <path fill-rule="evenodd" clip-rule="evenodd"
                    d="M6.56283 1.16602C6.56283 0.924391 6.7587 0.728516 7.00033 0.728516C10.4636 0.728516 13.2712 3.53606 13.2712 6.99935C13.2712 10.4626 10.4636 13.2702 7.00033 13.2702C3.53704 13.2702 0.729492 10.4626 0.729492 6.99935C0.729492 6.75772 0.925368 6.56185 1.16699 6.56185C1.40862 6.56185 1.60449 6.75772 1.60449 6.99935C1.60449 9.97939 4.02029 12.3952 7.00033 12.3952C9.98036 12.3952 12.3962 9.97939 12.3962 6.99935C12.3962 4.01931 9.98036 1.60352 7.00033 1.60352C6.7587 1.60352 6.56283 1.40764 6.56283 1.16602ZM7.00033 4.81185C7.24195 4.81185 7.43783 5.00772 7.43783 5.24935V7.14518H9.33366C9.57528 7.14518 9.77116 7.34106 9.77116 7.58268C9.77116 7.82431 9.57528 8.02018 9.33366 8.02018H7.00033C6.7587 8.02018 6.56283 7.82431 6.56283 7.58268V5.24935C6.56283 5.00772 6.7587 4.81185 7.00033 4.81185Z"
                    fill="#F1F1F3" />
                <path fill-rule="evenodd" clip-rule="evenodd"
                    d="M5.30841 1.39791C5.39542 1.62333 5.28323 1.8766 5.05782 1.96361C4.97532 1.99546 4.89379 2.02928 4.81329 2.06502C4.59245 2.16306 4.33395 2.06351 4.23591 1.84267C4.13787 1.62183 4.23742 1.36332 4.45826 1.26528C4.55188 1.22372 4.64673 1.18437 4.74271 1.14732C4.96812 1.06031 5.2214 1.1725 5.30841 1.39791ZM3.29482 2.47284C3.46146 2.64781 3.4547 2.92473 3.27973 3.09137C3.21575 3.1523 3.15327 3.21478 3.09235 3.27875C2.92571 3.45372 2.64878 3.46048 2.47381 3.29384C2.29884 3.12721 2.29209 2.85028 2.45872 2.67531C2.52946 2.60103 2.60201 2.52849 2.67628 2.45775C2.85126 2.29111 3.12818 2.29787 3.29482 2.47284ZM1.84364 4.23493C2.06448 4.33297 2.16403 4.59147 2.06599 4.81231C2.03026 4.89281 1.99644 4.97434 1.96459 5.05684C1.87758 5.28226 1.6243 5.39445 1.39889 5.30744C1.17348 5.22042 1.06128 4.96715 1.1483 4.74174C1.18535 4.64575 1.22469 4.55091 1.26626 4.45728C1.3643 4.23644 1.6228 4.13689 1.84364 4.23493Z"
                    fill="#F1F1F3" />
            </g>
            <defs>
                <clipPath id="clip0_8063_1166">
                    <rect width="14" height="14" fill="white" />
                </clipPath>
            </defs>
        </symbol>

        <symbol id="icon-plus" xmlns="http://www.w3.org/2000/svg" viewBox="0 0 24 24" fill="none">
            <path
                d="M19 11.75V12.25C19 12.5261 18.7762 12.75 18.5 12.75H12.75V18.5C12.75 18.7761 12.5261 19 12.25 19H11.75C11.4739 19 11.25 18.7761 11.25 18.5V12.75H5.5C5.22386 12.75 5 12.5261 5 12.25V11.75C5 11.4739 5.22386 11.25 5.5 11.25H11.25V5.5C11.25 5.22385 11.4739 5 11.75 5H12.25C12.5261 5 12.75 5.22385 12.75 5.5V11.25H18.5C18.7762 11.25 19 11.4739 19 11.75Z"
                fill="white" />
        </symbol>

        <symbol id="icon-massage" xmlns="http://www.w3.org/2000/svg" viewBox="0 0 16 16" fill="none">
            <path d="M11.5111 6.04102L8.66745 8.33053C8.12931 8.75244 7.37493 8.75244 6.83679 8.33053L3.96875 6.04102"
                stroke="#9797AA" stroke-width="1.5" stroke-linecap="round" stroke-linejoin="round" />
            <path fill-rule="evenodd" clip-rule="evenodd"
                d="M4.59159 2.33398H10.8769C11.7831 2.34415 12.6457 2.72727 13.2637 3.39412C13.8817 4.06097 14.2011 4.95334 14.1477 5.8634V10.2153C14.2011 11.1254 13.8817 12.0177 13.2637 12.6846C12.6457 13.3514 11.7831 13.7346 10.8769 13.7447H4.59159C2.64498 13.7447 1.33301 12.1611 1.33301 10.2153V5.8634C1.33301 3.91762 2.64498 2.33398 4.59159 2.33398Z"
                stroke="#9797AA" stroke-width="1.5" stroke-linecap="round" stroke-linejoin="round" />
        </symbol>

        <symbol id="icon-menu" xmlns="http://www.w3.org/2000/svg" viewBox="0 0 24 24" fill="none">
            <path d="M4 7L7 7M20 7L11 7" stroke="currentColor" stroke-width="2" stroke-linecap="round" />
            <path d="M20 17H17M4 17L13 17" stroke="currentColor" stroke-width="2" stroke-linecap="round" />
            <path d="M4 12H7L20 12" stroke="currentColor" stroke-width="2" stroke-linecap="round" />
        </symbol>

        <symbol id="icon-movie" xmlns="http://www.w3.org/2000/svg" width="24" height="24" viewBox="0 0 24 24"
            fill="none">
            <path
                d="M8.8589 2.00001H15.141C15.3502 1.99995 15.5106 1.99991 15.6509 2.01515C16.6479 2.12351 17.464 2.78957 17.81 3.68676H6.18985C6.53591 2.78957 7.35199 2.12351 8.34903 2.01515C8.48926 1.99991 8.64967 1.99995 8.8589 2.00001Z"
                fill="currentcolor" />
            <path
                d="M6.87946 4.72309C5.6279 4.72309 4.60167 5.56284 4.25919 6.67687C4.25205 6.70009 4.24521 6.72343 4.23866 6.74689C4.597 6.62632 4.96993 6.54755 5.34745 6.49378C6.31978 6.35527 7.54859 6.35534 8.97602 6.35543L9.08261 6.35543L15.1789 6.35543C16.6063 6.35534 17.8351 6.35527 18.8075 6.49378C19.185 6.54755 19.5579 6.62632 19.9163 6.74689C19.9097 6.72343 19.9029 6.70009 19.8957 6.67687C19.5533 5.56284 18.527 4.72309 17.2755 4.72309H6.87946Z"
                fill="currentcolor" />
            <path fill-rule="evenodd" clip-rule="evenodd"
                d="M3.59609 8.52881C2.74302 9.51563 2.94373 11.0402 3.34516 14.0894L3.72583 16.981C4.04063 19.3722 4.19803 20.5678 5.0055 21.2838C5.81298 21.9998 7.00393 21.9998 9.38583 21.9998H14.6142C16.9961 21.9998 18.187 21.9998 18.9945 21.2838C19.802 20.5678 19.9594 19.3722 20.2742 16.981L20.6548 14.0894C21.0563 11.0402 21.257 9.51563 20.4039 8.52881C19.5509 7.54199 18.0322 7.54199 14.9948 7.54199H9.00515C5.96782 7.54199 4.44915 7.54199 3.59609 8.52881ZM12.5128 11.3775L12.5655 11.406C12.8385 11.553 13.1079 11.706 13.3502 11.8568C13.6262 12.0285 13.9207 12.2309 14.2111 12.4408L14.2575 12.4744C14.729 12.8151 15.1565 13.1241 15.4567 13.4339C15.798 13.7862 16.0446 14.2086 16.0446 14.7709C16.0446 15.3333 15.798 15.7557 15.4567 16.108C15.1565 16.4178 14.729 16.7267 14.2575 17.0675L14.2111 17.101C13.9207 17.311 13.6262 17.5133 13.3502 17.6851C13.1079 17.8359 12.8385 17.9888 12.5655 18.1359L12.5128 18.1643C12.0483 18.4148 11.6153 18.6482 11.2389 18.768C10.8015 18.9073 10.3173 18.9334 9.84983 18.6225C9.4025 18.3249 9.21137 17.8793 9.11315 17.4301C9.02324 17.0189 8.98904 16.4942 8.95048 15.9024L8.94702 15.8493C8.92287 15.4793 8.90704 15.1089 8.90704 14.7709C8.90704 14.4329 8.92287 14.0626 8.94702 13.6925L8.95048 13.6395C8.98904 13.0477 9.02324 12.5229 9.11315 12.1117C9.21137 11.6626 9.4025 11.217 9.84983 10.9194C10.3173 10.6084 10.8015 10.6346 11.2389 10.7738C11.6153 10.8936 12.0483 11.1271 12.5128 11.3775ZM10.6335 12.1278C10.6462 12.1194 10.648 12.1204 10.648 12.1204C10.6595 12.1197 10.7061 12.1197 10.8108 12.1531C11.0449 12.2276 11.3588 12.3934 11.895 12.6823C12.1516 12.8206 12.3936 12.9583 12.6029 13.0886C12.8416 13.2372 13.1073 13.4192 13.3817 13.6176C13.9149 14.003 14.2364 14.2387 14.4378 14.4466C14.608 14.6222 14.6171 14.7009 14.6171 14.7709C14.6171 14.841 14.608 14.9197 14.4378 15.0953C14.2364 15.3032 13.9149 15.5388 13.3817 15.9243C13.1073 16.1226 12.8416 16.3047 12.6029 16.4533C12.3936 16.5835 12.1516 16.7213 11.895 16.8596C11.3588 17.1485 11.0449 17.3143 10.8108 17.3888C10.7061 17.4221 10.6595 17.4222 10.648 17.4214C10.648 17.4214 10.6462 17.4225 10.6335 17.414L10.6319 17.413C10.618 17.4044 10.5621 17.37 10.5069 17.1175C10.4435 16.8274 10.4146 16.4153 10.3714 15.754C10.3485 15.403 10.3346 15.0666 10.3346 14.7709C10.3346 14.4753 10.3485 14.1388 10.3714 13.7879C10.4146 13.1266 10.4435 12.7144 10.5069 12.4243C10.5621 12.1719 10.618 12.1374 10.6319 12.1289L10.6335 12.1278Z"
                fill="currentcolor" />
        </symbol>

        <symbol id="icon-cinema" xmlns="http://www.w3.org/2000/svg" width="24" height="24" viewBox="0 0 24 24"
            fill="none">
            <path d="M11.25 2C9.88382 2.00133 8.73117 2.01015 7.75 2.0685V6.24976H11.25V2Z" fill="currentcolor" />
            <path
                d="M6.25 2.2214C5.02727 2.41566 4.1485 2.78019 3.46447 3.46423C2.78043 4.14826 2.4159 5.02703 2.22164 6.24976H6.25V2.2214Z"
                fill="currentcolor" />
            <path fill-rule="evenodd" clip-rule="evenodd"
                d="M2 11.9998C2 10.2993 2 8.90556 2.06874 7.74976L21.9313 7.74976C22 8.90556 22 10.2993 22 11.9998C22 13.7002 22 15.094 21.9313 16.2498L2.06874 16.2498C2 15.094 2 13.7002 2 11.9998ZM12.4112 10.4043C13.4704 11.1162 14 11.4722 14 12C14 12.5278 13.4704 12.8838 12.4112 13.5957C11.3375 14.3173 10.8006 14.6781 10.4003 14.4132C10 14.1483 10 13.4322 10 12C10 10.5678 10 9.85174 10.4003 9.58682C10.8006 9.3219 11.3375 9.68271 12.4112 10.4043Z"
                fill="currentcolor" />
            <path
                d="M21.7784 6.24976C21.5841 5.02703 21.2196 4.14826 20.5355 3.46423C19.8515 2.78019 18.9727 2.41566 17.75 2.2214V6.24976H21.7784Z"
                fill="currentcolor" />
            <path d="M12.75 2C14.1162 2.00133 15.2688 2.01015 16.25 2.0685V6.24976H12.75V2Z" fill="currentcolor" />
            <path
                d="M21.7784 17.7498H17.75V21.7781C18.9727 21.5839 19.8515 21.2193 20.5355 20.5353C21.2196 19.8513 21.5841 18.9725 21.7784 17.7498Z"
                fill="currentcolor" />
            <path d="M16.25 17.7498V21.931C15.2688 21.9894 14.1162 21.9982 12.75 21.9995V17.7498H16.25Z" fill="#fff" />
            <path d="M11.25 21.9995V17.7498H7.75L7.75 21.931C8.73117 21.9894 9.88382 21.9982 11.25 21.9995Z"
                fill="currentcolor" />
            <path
                d="M6.25 17.7498L6.25 21.7781C5.02727 21.5839 4.1485 21.2193 3.46447 20.5353C2.78043 19.8513 2.4159 18.9725 2.22164 17.7498H6.25Z"
                fill="currentcolor" />
        </symbol>

        <symbol id="icon-home" xmlns="http://www.w3.org/2000/svg" width="24" height="24" viewBox="0 0 24 24"
            fill="none">
            <path d="M18.5 3H16C15.7239 3 15.5 3.22386 15.5 3.5V3.55891L19 6.35891V3.5C19 3.22386 18.7762 3 18.5 3Z"
                fill="currentcolor" />
            <path fill-rule="evenodd" clip-rule="evenodd"
                d="M10.75 9.5C10.75 8.80964 11.3097 8.25 12 8.25C12.6904 8.25 13.25 8.80964 13.25 9.5C13.25 10.1904 12.6904 10.75 12 10.75C11.3097 10.75 10.75 10.1904 10.75 9.5Z"
                fill="currentcolor" />
            <path fill-rule="evenodd" clip-rule="evenodd"
                d="M20.75 10.9605L21.5315 11.5857C21.855 11.8444 22.3269 11.792 22.5857 11.4685C22.8444 11.1451 22.792 10.6731 22.4685 10.4143L14.3426 3.91362C12.9731 2.81796 11.027 2.81796 9.65742 3.91362L1.53151 10.4143C1.20806 10.6731 1.15562 11.1451 1.41438 11.4685C1.67313 11.792 2.1451 11.8444 2.46855 11.5857L3.25003 10.9605V21.25H2.00003C1.58581 21.25 1.25003 21.5858 1.25003 22C1.25003 22.4142 1.58581 22.75 2.00003 22.75H22C22.4142 22.75 22.75 22.4142 22.75 22C22.75 21.5858 22.4142 21.25 22 21.25H20.75V10.9605ZM9.25003 9.5C9.25003 7.98122 10.4812 6.75 12 6.75C13.5188 6.75 14.75 7.98122 14.75 9.5C14.75 11.0188 13.5188 12.25 12 12.25C10.4812 12.25 9.25003 11.0188 9.25003 9.5ZM12.0494 13.25C12.7143 13.25 13.2871 13.2499 13.7459 13.3116C14.2375 13.3777 14.7088 13.5268 15.091 13.909C15.4733 14.2913 15.6223 14.7625 15.6884 15.2542C15.7462 15.6842 15.7498 16.2146 15.75 16.827C15.75 16.8679 15.75 16.9091 15.75 16.9506L15.75 21.25H14.25V17C14.25 16.2717 14.2484 15.8009 14.2018 15.454C14.1581 15.1287 14.0875 15.0268 14.0304 14.9697C13.9733 14.9126 13.8713 14.842 13.546 14.7982C13.1991 14.7516 12.7283 14.75 12 14.75C11.2717 14.75 10.8009 14.7516 10.4541 14.7982C10.1288 14.842 10.0268 14.9126 9.9697 14.9697C9.9126 15.0268 9.84199 15.1287 9.79826 15.454C9.75162 15.8009 9.75003 16.2717 9.75003 17V21.25H8.25003L8.25003 16.9506C8.24999 16.2858 8.24996 15.7129 8.31163 15.2542C8.37773 14.7625 8.52679 14.2913 8.90904 13.909C9.29128 13.5268 9.76255 13.3777 10.2542 13.3116C10.7129 13.2499 11.2858 13.25 11.9507 13.25H12.0494Z"
                fill="currentcolor" />
            <path fill-rule="evenodd" clip-rule="evenodd"
                d="M10.75 9.5C10.75 8.80964 11.3097 8.25 12 8.25C12.6904 8.25 13.25 8.80964 13.25 9.5C13.25 10.1904 12.6904 10.75 12 10.75C11.3097 10.75 10.75 10.1904 10.75 9.5Z"
                fill="currentcolor" />
        </symbol>

        <symbol id="icon-time" xmlns="http://www.w3.org/2000/svg" viewBox="0 0 24 24" fill="none">
            <path opacity="0.5"
                d="M12 22C17.5228 22 22 17.5228 22 12C22 6.47715 17.5228 2 12 2C6.47715 2 2 6.47715 2 12C2 17.5228 6.47715 22 12 22Z"
                fill="#1C274C" />
            <path fill-rule="evenodd" clip-rule="evenodd"
                d="M12 7.25C12.4142 7.25 12.75 7.58579 12.75 8V11.6893L15.0303 13.9697C15.3232 14.2626 15.3232 14.7374 15.0303 15.0303C14.7374 15.3232 14.2626 15.3232 13.9697 15.0303L11.4697 12.5303C11.329 12.3897 11.25 12.1989 11.25 12V8C11.25 7.58579 11.5858 7.25 12 7.25Z"
                fill="#1C274C" />
        </symbol>

        <symbol id="icon-fire" xmlns="http://www.w3.org/2000/svg" viewBox="0 0 24 24" fill="none">
            <path opacity="0.5"
                d="M12.8324 21.8013C15.9583 21.1747 20 18.926 20 13.1112C20 7.8196 16.1267 4.29593 13.3415 2.67685C12.7235 2.31757 12 2.79006 12 3.50492V5.3334C12 6.77526 11.3938 9.40711 9.70932 10.5018C8.84932 11.0607 7.92052 10.2242 7.816 9.20388L7.73017 8.36604C7.6304 7.39203 6.63841 6.80075 5.85996 7.3946C4.46147 8.46144 3 10.3296 3 13.1112C3 20.2223 8.28889 22.0001 10.9333 22.0001C11.0871 22.0001 11.2488 21.9955 11.4171 21.9858C11.863 21.9296 11.4171 22.085 12.8324 21.8013Z"
                fill="#1C274C" />
            <path
                d="M8 18.4442C8 21.064 10.1113 21.8742 11.4171 21.9858C11.863 21.9296 11.4171 22.085 12.8324 21.8013C13.871 21.4343 15 20.4922 15 18.4442C15 17.1465 14.1814 16.3459 13.5401 15.9711C13.3439 15.8564 13.1161 16.0008 13.0985 16.2273C13.0429 16.9454 12.3534 17.5174 11.8836 16.9714C11.4685 16.4889 11.2941 15.784 11.2941 15.3331V14.7439C11.2941 14.3887 10.9365 14.1533 10.631 14.3346C9.49507 15.0085 8 16.3949 8 18.4442Z"
                fill="#1C274C" />
        </symbol>

        <symbol id="icon-trash" xmlns="http://www.w3.org/2000/svg" viewBox="0 0 24 24" fill="none">
            <path
                d="M3 6.52381C3 6.12932 3.32671 5.80952 3.72973 5.80952H8.51787C8.52437 4.9683 8.61554 3.81504 9.45037 3.01668C10.1074 2.38839 11.0081 2 12 2C12.9919 2 13.8926 2.38839 14.5496 3.01668C15.3844 3.81504 15.4756 4.9683 15.4821 5.80952H20.2703C20.6733 5.80952 21 6.12932 21 6.52381C21 6.9183 20.6733 7.2381 20.2703 7.2381H3.72973C3.32671 7.2381 3 6.9183 3 6.52381Z"
                fill="#1C274C" />
            <path opacity="0.5"
                d="M11.5956 22.0001H12.4044C15.1871 22.0001 16.5785 22.0001 17.4831 21.1142C18.3878 20.2283 18.4803 18.7751 18.6654 15.8686L18.9321 11.6807C19.0326 10.1037 19.0828 9.31524 18.6289 8.81558C18.1751 8.31592 17.4087 8.31592 15.876 8.31592H8.12405C6.59127 8.31592 5.82488 8.31592 5.37105 8.81558C4.91722 9.31524 4.96744 10.1037 5.06788 11.6807L5.33459 15.8686C5.5197 18.7751 5.61225 20.2283 6.51689 21.1142C7.42153 22.0001 8.81289 22.0001 11.5956 22.0001Z"
                fill="#1C274C" />
            <path fill-rule="evenodd" clip-rule="evenodd"
                d="M9.42543 11.4815C9.83759 11.4381 10.2051 11.7547 10.2463 12.1885L10.7463 17.4517C10.7875 17.8855 10.4868 18.2724 10.0747 18.3158C9.66253 18.3592 9.29499 18.0426 9.25378 17.6088L8.75378 12.3456C8.71256 11.9118 9.01327 11.5249 9.42543 11.4815Z"
                fill="#1C274C" />
            <path fill-rule="evenodd" clip-rule="evenodd"
                d="M14.5747 11.4815C14.9868 11.5249 15.2875 11.9118 15.2463 12.3456L14.7463 17.6088C14.7051 18.0426 14.3376 18.3592 13.9254 18.3158C13.5133 18.2724 13.2126 17.8855 13.2538 17.4517L13.7538 12.1885C13.795 11.7547 14.1625 11.4381 14.5747 11.4815Z"
                fill="#1C274C" />
        </symbol>

        <symbol id="icon-close" xmlns="http://www.w3.org/2000/svg" viewBox="0 0 24 24" fill="none">
            <path d="M14.8281 14.8284L16.2423 16.2426" stroke="#fff" stroke-width="1.5" stroke-linecap="round"
                stroke-linejoin="round" />
            <path d="M7.75781 7.75732L11.76 11.7595" stroke="#fff" stroke-width="1.5" stroke-linecap="round"
                stroke-linejoin="round" />
            <path d="M7.75691 16.2426L16.2422 7.75732" stroke="#fff" stroke-width="1.5" stroke-linecap="round"
                stroke-linejoin="round" />
        </symbol>

        <symbol id="icon-filter" xmlns="http://www.w3.org/2000/svg" viewBox="0 0 24 24" fill="none">
            <path
                d="M20 11.998H9.3146M5.54292 11.998H4M5.54292 11.998C5.54292 11.498 5.74156 11.0184 6.09514 10.6648C6.44872 10.3112 6.92828 10.1126 7.42832 10.1126C7.92837 10.1126 8.40793 10.3112 8.76151 10.6648C9.11509 11.0184 9.31373 11.498 9.31373 11.998C9.31373 12.498 9.11509 12.9776 8.76151 13.3312C8.40793 13.6848 7.92837 13.8834 7.42832 13.8834C6.92828 13.8834 6.44872 13.6848 6.09514 13.3312C5.74156 12.9776 5.54292 12.498 5.54292 11.998ZM20 17.7122H15.0288M15.0288 17.7122C15.0288 18.2123 14.8296 18.6924 14.476 19.0461C14.1223 19.3998 13.6426 19.5984 13.1425 19.5984C12.6424 19.5984 12.1629 19.3989 11.8093 19.0454C11.4557 18.6918 11.2571 18.2122 11.2571 17.7122M15.0288 17.7122C15.0288 17.212 14.8296 16.7328 14.476 16.3791C14.1223 16.0254 13.6426 15.8268 13.1425 15.8268C12.6424 15.8268 12.1629 16.0254 11.8093 16.379C11.4557 16.7326 11.2571 17.2121 11.2571 17.7122M11.2571 17.7122H4M20 6.28384H17.3146M13.5429 6.28384H4M13.5429 6.28384C13.5429 5.7838 13.7416 5.30424 14.0951 4.95066C14.4487 4.59708 14.9283 4.39844 15.4283 4.39844C15.6759 4.39844 15.9211 4.4472 16.1498 4.54196C16.3786 4.63671 16.5864 4.77558 16.7615 4.95066C16.9366 5.12574 17.0755 5.33358 17.1702 5.56233C17.265 5.79108 17.3137 6.03625 17.3137 6.28384C17.3137 6.53144 17.265 6.77661 17.1702 7.00536C17.0755 7.2341 16.9366 7.44195 16.7615 7.61703C16.5864 7.7921 16.3786 7.93098 16.1498 8.02573C15.9211 8.12048 15.6759 8.16925 15.4283 8.16925C14.9283 8.16925 14.4487 7.97061 14.0951 7.61703C13.7416 7.26344 13.5429 6.78388 13.5429 6.28384Z"
                stroke="white" stroke-width="1.5" stroke-miterlimit="10" stroke-linecap="round" />
        </symbol>

        <symbol id="icon-location" xmlns="http://www.w3.org/2000/svg" viewBox="0 0 24 24" fill="none">
            <path fill-rule="evenodd" clip-rule="evenodd"
                d="M3.25 10.1433C3.25 5.24427 7.15501 1.25 12 1.25C16.845 1.25 20.75 5.24427 20.75 10.1433C20.75 12.5084 20.076 15.0479 18.8844 17.2419C17.6944 19.4331 15.9556 21.3372 13.7805 22.3539C12.6506 22.882 11.3494 22.882 10.2195 22.3539C8.04437 21.3372 6.30562 19.4331 5.11556 17.2419C3.92403 15.0479 3.25 12.5084 3.25 10.1433ZM12 2.75C8.00843 2.75 4.75 6.04748 4.75 10.1433C4.75 12.2404 5.35263 14.5354 6.4337 16.526C7.51624 18.5192 9.04602 20.1496 10.8546 20.995C11.5821 21.335 12.4179 21.335 13.1454 20.995C14.954 20.1496 16.4838 18.5192 17.5663 16.526C18.6474 14.5354 19.25 12.2404 19.25 10.1433C19.25 6.04748 15.9916 2.75 12 2.75ZM12 7.75C10.7574 7.75 9.75 8.75736 9.75 10C9.75 11.2426 10.7574 12.25 12 12.25C13.2426 12.25 14.25 11.2426 14.25 10C14.25 8.75736 13.2426 7.75 12 7.75ZM8.25 10C8.25 7.92893 9.92893 6.25 12 6.25C14.0711 6.25 15.75 7.92893 15.75 10C15.75 12.0711 14.0711 13.75 12 13.75C9.92893 13.75 8.25 12.0711 8.25 10Z"
                fill="#7C7C8D" />
        </symbol>

                <symbol id="icon-calendar" xmlns="http://www.w3.org/2000/svg" viewBox="0 0 24 24" fill="none">
            <path
                d="M17 14C17.5523 14 18 13.5523 18 13C18 12.4477 17.5523 12 17 12C16.4477 12 16 12.4477 16 13C16 13.5523 16.4477 14 17 14Z"
                fill="white" />
            <path
                d="M17 18C17.5523 18 18 17.5523 18 17C18 16.4477 17.5523 16 17 16C16.4477 16 16 16.4477 16 17C16 17.5523 16.4477 18 17 18Z"
                fill="white" />
            <path
                d="M13 13C13 13.5523 12.5523 14 12 14C11.4477 14 11 13.5523 11 13C11 12.4477 11.4477 12 12 12C12.5523 12 13 12.4477 13 13Z"
                fill="white" />
            <path
                d="M13 17C13 17.5523 12.5523 18 12 18C11.4477 18 11 17.5523 11 17C11 16.4477 11.4477 16 12 16C12.5523 16 13 16.4477 13 17Z"
                fill="white" />
            <path
                d="M7 14C7.55229 14 8 13.5523 8 13C8 12.4477 7.55229 12 7 12C6.44772 12 6 12.4477 6 13C6 13.5523 6.44772 14 7 14Z"
                fill="white" />
            <path
                d="M7 18C7.55229 18 8 17.5523 8 17C8 16.4477 7.55229 16 7 16C6.44772 16 6 16.4477 6 17C6 17.5523 6.44772 18 7 18Z"
                fill="white" />
            <path fill-rule="evenodd" clip-rule="evenodd"
                d="M7 1.75C7.41421 1.75 7.75 2.08579 7.75 2.5V3.26272C8.412 3.24999 9.14133 3.24999 9.94346 3.25H14.0564C14.8586 3.24999 15.588 3.24999 16.25 3.26272V2.5C16.25 2.08579 16.5858 1.75 17 1.75C17.4142 1.75 17.75 2.08579 17.75 2.5V3.32709C18.0099 3.34691 18.2561 3.37182 18.489 3.40313C19.6614 3.56076 20.6104 3.89288 21.3588 4.64124C22.1071 5.38961 22.4392 6.33855 22.5969 7.51098C22.75 8.65018 22.75 10.1058 22.75 11.9435V14.0564C22.75 15.8941 22.75 17.3498 22.5969 18.489C22.4392 19.6614 22.1071 20.6104 21.3588 21.3588C20.6104 22.1071 19.6614 22.4392 18.489 22.5969C17.3498 22.75 15.8942 22.75 14.0565 22.75H9.94359C8.10585 22.75 6.65018 22.75 5.51098 22.5969C4.33856 22.4392 3.38961 22.1071 2.64124 21.3588C1.89288 20.6104 1.56076 19.6614 1.40314 18.489C1.24997 17.3498 1.24998 15.8942 1.25 14.0564V11.9436C1.24998 10.1058 1.24997 8.65019 1.40314 7.51098C1.56076 6.33855 1.89288 5.38961 2.64124 4.64124C3.38961 3.89288 4.33856 3.56076 5.51098 3.40313C5.7439 3.37182 5.99006 3.34691 6.25 3.32709V2.5C6.25 2.08579 6.58579 1.75 7 1.75ZM5.71085 4.88976C4.70476 5.02502 4.12511 5.27869 3.7019 5.7019C3.27869 6.12511 3.02502 6.70476 2.88976 7.71085C2.86685 7.88123 2.8477 8.06061 2.83168 8.25H21.1683C21.1523 8.06061 21.1331 7.88124 21.1102 7.71085C20.975 6.70476 20.7213 6.12511 20.2981 5.7019C19.8749 5.27869 19.2952 5.02502 18.2892 4.88976C17.2615 4.75159 15.9068 4.75 14 4.75H10C8.09318 4.75 6.73851 4.75159 5.71085 4.88976ZM2.75 12C2.75 11.146 2.75032 10.4027 2.76309 9.75H21.2369C21.2497 10.4027 21.25 11.146 21.25 12V14C21.25 15.9068 21.2484 17.2615 21.1102 18.2892C20.975 19.2952 20.7213 19.8749 20.2981 20.2981C19.8749 20.7213 19.2952 20.975 18.2892 21.1102C17.2615 21.2484 15.9068 21.25 14 21.25H10C8.09318 21.25 6.73851 21.2484 5.71085 21.1102C4.70476 20.975 4.12511 20.7213 3.7019 20.2981C3.27869 19.8749 3.02502 19.2952 2.88976 18.2892C2.75159 17.2615 2.75 15.9068 2.75 14V12Z"
                fill="white" />
        </symbol>

                <symbol id="icon-heart-active" xmlns="http://www.w3.org/2000/svg" viewBox="0 0 24 24" fill="none">
            <path
                d="M8.10627 18.2471C5.29819 16.0836 2 13.5424 2 9.13734C2 4.27441 7.50016 0.825708 12 5.50088L14 7.49952C14.2929 7.79236 14.7678 7.79228 15.0607 7.49933C15.3535 7.20638 15.3534 6.73151 15.0605 6.43867L13.1285 4.50736C17.3685 1.40333 22 4.67489 22 9.13734C22 13.5424 18.7018 16.0835 15.8937 18.2471C15.6019 18.4719 15.3153 18.6927 15.0383 18.9111C14 19.7296 13 20.5002 12 20.5002C11 20.5002 10 19.7296 8.96173 18.9111C8.68471 18.6927 8.39814 18.4719 8.10627 18.2471Z"
                fill="currentcolor" />
        </symbol>

        <symbol id="icon-ticket" xmlns="http://www.w3.org/2000/svg" viewBox="0 0 24 24" fill="none">
            <path
                d="M12 11.75V12.25M12 8V8.5M12 15.5V16M19 19C19.5304 19 20.0391 18.7893 20.4142 18.4142C20.7893 18.0391 21 17.5304 21 17V14C20.4696 14 19.9609 13.7893 19.5858 13.4142C19.2107 13.0391 19 12.5304 19 12C19 11.4696 19.2107 10.9609 19.5858 10.5858C19.9609 10.2107 20.4696 10 21 10V7C21 6.46957 20.7893 5.96086 20.4142 5.58579C20.0391 5.21071 19.5304 5 19 5H5C4.46957 5 3.96086 5.21071 3.58579 5.58579C3.21071 5.96086 3 6.46957 3 7V10C3.53043 10 4.03914 10.2107 4.41421 10.5858C4.78929 10.9609 5 11.4696 5 12C5 12.5304 4.78929 13.0391 4.41421 13.4142C4.03914 13.7893 3.53043 14 3 14V17C3 17.5304 3.21071 18.0391 3.58579 18.4142C3.96086 18.7893 4.46957 19 5 19H19Z"
                stroke="black" stroke-width="1.5" stroke-linecap="round" stroke-linejoin="round" />
        </symbol>

        <symbol id="icon-all-comment" xmlns="http://www.w3.org/2000/svg" viewBox="0 0 24 24" fill="none">
            <path d="M9 15L15 9M15 9H10.5M15 9V13.5" stroke="#B3E5E5" stroke-width="1.5" stroke-linecap="round"
                stroke-linejoin="round" />
            <path
                d="M2 12C2 7.28595 2 4.92893 3.46447 3.46447C4.92893 2 7.28595 2 12 2C16.714 2 19.0711 2 20.5355 3.46447C22 4.92893 22 7.28595 22 12C22 16.714 22 19.0711 20.5355 20.5355C19.0711 22 16.714 22 12 22C7.28595 22 4.92893 22 3.46447 20.5355C2 19.0711 2 16.714 2 12Z"
                stroke="#B3E5E5" stroke-width="1.5" />
        </symbol>

        <symbol id="icon-more-comment" xmlns="http://www.w3.org/2000/svg" viewBox="0 0 40 40" fill="none">
            <path
                d="M3.33301 20.0007C3.33301 12.1439 3.33301 8.21554 5.77378 5.77476C8.21456 3.33398 12.1429 3.33398 19.9997 3.33398C27.8564 3.33398 31.7848 3.33398 34.2256 5.77476C36.6663 8.21554 36.6663 12.1439 36.6663 20.0007C36.6663 27.8574 36.6663 31.7858 34.2256 34.2265C31.7848 36.6673 27.8564 36.6673 19.9997 36.6673C12.1429 36.6673 8.21456 36.6673 5.77378 34.2265C3.33301 31.7858 3.33301 27.8574 3.33301 20.0007Z"
                stroke="#F1F1F3" stroke-width="1.5" />
            <path d="M15 14.166L20 19.166L25 14.166" stroke="#F1F1F3" stroke-width="1.5" stroke-linecap="round"
                stroke-linejoin="round" />
            <path d="M15 20.834L20 25.834L25 20.834" stroke="#F1F1F3" stroke-width="1.5" stroke-linecap="round"
                stroke-linejoin="round" />
        </symbol>
    </svg>